PathFileType	4	(X/Y/Z)	s09c0203.trc
DataRate	CameraRate	NumFrames	NumMarkers	Units	OrigDataRate	OrigDataStartFrame	OrigNumFrames
200	200	5	50	mm	200	500	2000
Frame#	Time	racr			lacr			c7			jug			rlel			rdr			llel			ldr			s2			lic			ric			lasi			rasi			rpsi			lpsi			rgt			lgt			rth1			rth2			rth3			rth4			rlfc			rmfc			rsh1			rsh2			rsh3			rsh4			rlmal			rmmal			rcal			rtoe			rmt5			lth1			lth2			lth4			lth3			llfc			lmfc			llmal			lmmal			lcal			lmt5			lsh1			lsh2			lsh3			lsh4			ltoe			SBIKE			LBIKE			RBIKE			
		X1	Y1	Z1	X2	Y2	Z2	X3	Y3	Z3	X4	Y4	Z4	X5	Y5	Z5	X6	Y6	Z6	X7	Y7	Z7	X8	Y8	Z8	X9	Y9	Z9	X10	Y10	Z10	X11	Y11	Z11	X12	Y12	Z12	X13	Y13	Z13	X14	Y14	Z14	X15	Y15	Z15	X16	Y16	Z16	X17	Y17	Z17	X18	Y18	Z18	X19	Y19	Z19	X20	Y20	Z20	X21	Y21	Z21	X22	Y22	Z22	X23	Y23	Z23	X24	Y24	Z24	X25	Y25	Z25	X26	Y26	Z26	X27	Y27	Z27	X28	Y28	Z28	X29	Y29	Z29	X30	Y30	Z30	X31	Y31	Z31	X32	Y32	Z32	X33	Y33	Z33	X34	Y34	Z34	X35	Y35	Z35	X36	Y36	Z36	X37	Y37	Z37	X38	Y38	Z38	X39	Y39	Z39	X40	Y40	Z40	X41	Y41	Z41	X42	Y42	Z42	X43	Y43	Z43	X44	Y44	Z44	X45	Y45	Z45	X46	Y46	Z46	X47	Y47	Z47	X48	Y48	Z48	X49	Y49	Z49	X50	Y50	Z50	
500	2.5000	510.060630	1234.620034	-38.914823	541.284137	1243.487359	-378.687689	503.291520	1307.632750	-196.689097	478.473660	1175.071989	-217.618749	453.775141	990.787609	35.560089	673.408185	910.189915	-36.516468	449.839476	1013.568556	-521.533402	666.415447	906.909684	-449.287386	8.694726	1137.151480	-216.606461	136.407337	1151.355011	-374.055925	159.653569	1123.498020	-73.601468	173.626610	1089.740449	-355.354745	204.587995	1075.750786	-103.583252	43.232626	1159.489365	-156.523647	35.853972	1179.315100	-262.481333	141.370515	979.497824	-47.705744	114.116414	1033.310796	-420.700355	231.069080	873.441728	-63.797036	298.101003	819.358677	-79.404424	324.412848	735.439390	-93.768663	321.668337	837.671617	-101.423155	367.804348	650.694274	-126.316659	337.025045	623.718538	-216.562211	346.872030	552.854567	-82.525629	361.635078	464.898831	-95.589099	334.602268	382.363088	-85.806716	381.113109	465.326649	-130.554326	319.544367	280.225216	-77.020674	313.786858	288.251119	-153.844354	243.700879	246.320727	-105.332901	506.116737	220.037584	-134.406315	428.275063	208.658546	-62.258081	231.912714	955.822279	-424.283853	313.227395	931.956734	-417.824125	332.082773	960.106837	-399.722228	375.312706	865.880188	-418.381500	430.229216	782.610545	-405.953452	439.497720	763.513989	-306.962657	141.447638	564.887276	-404.767844	160.455402	559.915729	-330.988537	64.636816	569.430702	-361.893094	175.420719	434.949229	-428.624106	356.520459	717.974167	-425.008348	301.660484	651.737137	-411.464182	218.106573	620.894362	-409.433602	318.313530	634.908379	-380.850887	259.819522	396.663904	-363.969593	-64.107834	851.058767	-240.029066	21.226343	84.337006	-442.172718	21.252651	84.069934	-43.786576	
501	2.5050	511.104102	1235.927337	-41.476983	538.548415	1245.931322	-382.225269	502.703944	1309.874283	-199.873027	477.989421	1177.208173	-220.329266	455.028608	992.642314	35.335596	673.993271	910.313369	-36.366573	449.232337	1013.109337	-521.793067	665.960940	906.704345	-448.371430	8.212441	1137.168558	-215.925757	135.294616	1151.842092	-373.836158	159.801859	1123.662634	-73.574152	172.754057	1090.392469	-355.283523	204.599557	1075.839509	-103.856494	42.930481	1159.321604	-156.222881	34.832462	1179.081658	-262.130958	141.506112	979.393838	-47.645248	113.812514	1034.289394	-420.664709	229.872071	872.141879	-63.737278	296.165789	817.217438	-79.458746	321.384378	732.970564	-93.748748	319.894756	835.226582	-101.593131	363.951582	648.048622	-126.088943	332.231715	621.229133	-215.887158	343.156145	550.346253	-82.241027	358.334305	462.546165	-95.419684	331.748405	379.840398	-85.589002	377.703106	462.971185	-130.446782	316.871392	277.648496	-77.072649	311.380471	285.472274	-153.701638	241.023119	245.145817	-105.285796	502.916304	214.078338	-134.466729	424.935590	204.184903	-62.236277	232.432893	958.091478	-424.189969	314.091751	935.291831	-417.369510	332.412057	963.566699	-399.000249	377.062901	870.111993	-418.515908	432.606955	787.430444	-405.393914	441.828649	768.060066	-306.331366	144.122236	568.925621	-404.813993	163.381729	563.881893	-331.209534	67.000366	572.957160	-362.065190	179.268246	439.470116	-428.684570	358.870348	722.850196	-424.563697	304.084741	656.530833	-411.255519	220.596768	625.564770	-409.276509	320.796121	639.552442	-380.842113	263.880634	401.904180	-363.727563	-64.143523	851.043226	-240.071876	21.200642	84.321334	-442.189598	21.243758	84.059399	-43.802890	
502	2.5100	512.028833	1237.377199	-44.206182	535.827490	1248.137465	-385.510614	502.215758	1312.193600	-203.204789	477.431326	1179.444047	-223.110201	456.271511	994.650000	35.122575	674.508868	910.447321	-36.296319	448.678216	1012.685584	-522.076903	665.498668	906.496953	-447.578031	9.132062	1137.757536	-215.614257	134.160605	1152.229772	-373.684589	159.950882	1123.717487	-73.713772	171.853556	1090.792264	-355.066343	204.630553	1075.941444	-104.275902	42.580427	1159.200135	-155.910368	33.855674	1179.085485	-261.901506	141.566810	979.248648	-47.560397	113.407075	1035.119158	-420.589542	228.555293	871.031404	-63.711420	294.215865	815.328585	-79.431299	318.442377	730.815137	-93.683437	318.024701	832.884510	-101.738525	359.956789	645.694837	-125.862207	327.950228	618.686949	-215.627212	339.546862	548.077113	-81.887587	355.091957	460.343468	-95.208548	328.957456	377.362807	-85.334686	374.347780	460.887547	-130.231234	314.225836	275.336914	-77.164008	309.002627	283.206988	-153.581569	238.221506	244.108377	-105.244061	499.528639	208.129080	-134.509964	421.361244	199.772585	-62.267194	232.801930	960.471062	-423.923394	314.814595	938.605028	-416.989360	332.608115	967.100882	-398.154836	378.657798	874.221850	-418.017644	434.866094	792.242222	-404.729696	444.027372	772.500516	-305.689688	146.949271	572.776484	-404.905487	166.058493	567.975353	-331.255321	69.539546	576.199522	-362.279958	183.334128	443.898281	-428.749101	361.058117	727.687293	-424.088805	306.457054	661.232212	-411.033814	223.014017	630.068267	-409.136788	323.296200	644.040192	-380.755242	268.699644	407.290714	-363.556510	-64.181982	851.030370	-240.114692	21.202500	84.306960	-442.196156	21.230079	84.071846	-43.824225	
503	2.5150	512.912407	1238.976953	-47.044687	533.045769	1250.358402	-388.943813	501.410711	1314.385220	-206.541350	476.793590	1181.513474	-225.919452	457.590462	996.769026	34.835777	674.980118	910.597661	-36.291748	448.117389	1012.354318	-522.379327	665.079224	906.334822	-446.901451	8.359495	1137.488890	-215.073459	132.869989	1152.393111	-373.522397	160.094471	1123.797954	-73.967888	170.878354	1091.080106	-355.065942	204.644984	1076.100132	-104.751912	42.222732	1159.049619	-155.648038	32.996951	1178.982597	-261.630106	141.589163	979.049624	-47.476264	112.847564	1035.902125	-420.480328	227.265210	869.873836	-63.621775	292.159787	813.376395	-79.449506	315.656929	728.710138	-93.533162	316.319593	830.801585	-101.887249	356.346562	643.367325	-125.676518	323.794244	616.445634	-215.329219	336.009365	545.879684	-81.720482	351.928673	458.212341	-94.981343	326.125892	375.201287	-85.092965	371.082310	458.819183	-130.048509	311.515690	273.252199	-77.216083	306.613161	280.793900	-153.476910	235.481488	243.219630	-105.230334	495.900959	202.489463	-134.648382	417.723174	195.598426	-62.291422	233.231733	962.666915	-423.874693	315.471306	941.713648	-416.524259	332.717569	970.417387	-397.400046	380.123260	878.168499	-417.572030	436.975550	796.962969	-404.077744	446.237141	776.975511	-304.072436	149.794706	576.401377	-404.951744	168.731396	571.747444	-331.256969	72.428284	579.209948	-362.178871	187.261761	448.230445	-428.678208	363.155792	732.383136	-423.516817	308.712994	665.744438	-410.788400	225.433150	634.356921	-408.891252	325.709118	648.388493	-380.661306	273.866224	412.938449	-364.374366	-64.250275	851.063364	-240.231356	21.186510	84.322846	-442.218751	21.193625	84.065228	-43.848672	
504	2.5200	513.749521	1240.871810	-50.016549	530.377752	1252.317160	-392.364918	500.465611	1316.446937	-209.939233	476.131156	1183.420980	-228.700353	458.926458	999.068304	34.502556	675.346477	910.794454	-36.364266	447.540162	1012.028120	-522.733466	664.728137	906.228978	-446.378052	7.592299	1137.328722	-214.550655	131.810048	1152.414393	-373.504413	160.258710	1123.884248	-74.235627	169.774553	1091.246803	-355.193728	204.641696	1076.231038	-105.259435	41.839661	1158.851912	-155.416417	32.026028	1178.762650	-261.408832	141.535455	978.816769	-47.399863	112.289086	1036.611396	-420.462251	226.069069	868.823050	-63.518339	290.343273	811.542188	-79.387108	312.936153	726.686468	-93.396371	314.559158	828.783116	-101.955835	352.607705	641.397716	-125.414778	319.890921	614.243161	-215.126877	332.587133	543.834362	-81.392636	348.831264	456.266901	-94.640552	323.338196	373.101575	-84.807502	367.869887	456.917403	-129.805023	308.919757	271.169795	-77.232110	304.011904	278.715374	-153.294415	232.666080	242.567150	-105.144276	492.222557	196.755466	-134.781642	413.945288	191.546732	-62.356217	233.488077	964.679166	-423.829143	315.915657	944.796686	-416.089086	332.683595	973.870378	-396.983121	381.393283	882.039924	-417.033298	438.967575	801.700206	-403.104921	448.247772	781.287624	-303.395650	152.735815	579.791577	-405.082657	171.419455	575.412915	-331.228610	74.991788	582.042972	-362.356824	191.456087	452.388339	-428.811860	365.206260	737.037824	-422.951985	311.026146	670.199161	-410.519851	227.800912	638.492830	-408.740201	328.041549	652.658258	-380.613300	277.913471	418.385060	-364.512184	-64.383743	851.002092	-240.149203	21.171032	84.312538	-442.255263	21.171330	84.091735	-43.877512	
